<svg xmlns="http://www.w3.org/2000/svg" width="27.186" height="26.402" viewBox="0 0 27.186 26.402"><defs><style>.a{fill:#f8f8f8;stroke:#f8f8f8;stroke-width:0.4px;}</style></defs><path class="a" d="M99.365,82.872H79.974l-1.117-2.625a.917.917,0,0,0-.634-.534l-3.6-.846a.917.917,0,0,0-.42,1.786l3.145.74L85.4,100.318a3.033,3.033,0,1,0,5.433.305h3.3a3.033,3.033,0,1,0,2.792-1.849l-10.185.014-1.256-2.953H99.366a.917.917,0,0,0,.917-.917V83.789A.917.917,0,0,0,99.365,82.872ZM96.933,100.61a1.2,1.2,0,1,1-1.2,1.2A1.2,1.2,0,0,1,96.933,100.61Zm-8.885,0a1.2,1.2,0,1,1-1.2,1.2A1.2,1.2,0,0,1,88.048,100.61Zm10.4-12.174h-6.08a.917.917,0,0,0,0,1.835h6.08V94H84.709l-3.954-9.3H98.448Z" transform="translate(-73.296 -78.638)"/></svg>