<svg xmlns="http://www.w3.org/2000/svg" width="29.248" height="28.404" viewBox="0 0 29.248 28.404"><defs><style>.a{fill:#2e2e2e;stroke:#2e2e2e;stroke-width:0.4px;}</style></defs><path class="a" d="M101.356,83.182H80.473l-1.2-2.828a.988.988,0,0,0-.683-.575l-3.874-.912a.988.988,0,1,0-.452,1.923l3.387.8,8.671,20.383a3.266,3.266,0,1,0,5.851.328h3.557a3.267,3.267,0,1,0,3.007-1.991l-10.969.015-1.353-3.18h14.944a.988.988,0,0,0,.988-.988V84.17A.988.988,0,0,0,101.356,83.182Zm-2.62,19.1a1.291,1.291,0,1,1-1.291,1.291A1.291,1.291,0,0,1,98.736,102.286Zm-9.569,0a1.291,1.291,0,1,1-1.291,1.291A1.291,1.291,0,0,1,89.168,102.286Zm11.2-13.111H93.821a.988.988,0,0,0,0,1.976h6.548v4.017h-14.8L81.313,85.158h19.055Z" transform="translate(-73.297 -78.639)"/></svg>