<svg xmlns="http://www.w3.org/2000/svg" xmlns:xlink="http://www.w3.org/1999/xlink" width="114.052" height="115.424" viewBox="0 0 114.052 115.424"><defs><style>.a{fill:#f8f8f8;}.b{fill:#961341;}.c{fill:#69133b;}.d{fill:#46153c;}.e{fill:#fff;stroke:#fff;stroke-miterlimit:10;stroke-width:2px;opacity:0.39;}.f{filter:url(#a);}</style><filter id="a" x="22.735" y="0" width="67.075" height="64.91" filterUnits="userSpaceOnUse"><feOffset dy="3" input="SourceAlpha"/><feGaussianBlur stdDeviation="3" result="b"/><feFlood flood-opacity="0.161"/><feComposite operator="in" in2="b"/><feComposite in="SourceGraphic"/></filter></defs><g transform="translate(-4932.841 -501.132)"><g transform="translate(4961.027 598.651)"><g transform="translate(0 0)"><path class="a" d="M5036.155,811.533l3.449,13.487h.175l3.9-13.409.529-2.033h1.83l.387,1.955,3.413,13.487h.175l3.942-13.409.492-2.033h1.688l-5.419,17.788h-1.794l-3.8-15.012h-.211l-4.4,15.012h-1.83l-4.644-17.71,1.724-.2Z" transform="translate(-5034.044 -809.461)"/></g><g transform="translate(25.33 0.025)"><path class="a" d="M5121.066,821.948l.049,5.486h-1.3l.076-5.4-.076-12.392h1.329Z" transform="translate(-5119.813 -809.612)"/><path class="a" d="M5151.16,822.3v5.068h-1.329L5140.659,812h-.126l-.025,9.663.025,5.709h-1.2l.05-5.291-.025-12.5h1.354l9.148,15.372h.125l.025-15.288,1.228-.111Z" transform="translate(-5133.567 -809.546)"/><path class="a" d="M5203.23,826.293l-.124,1.142h-8.447l.075-5.4-.075-12.392h8.42l.1.167-.15,1.142-3.735-.056-3.309.028-.05,6.711,3.134.028,2.682-.028.1.139-.125,1.142-5.79-.028-.025,3.063.051,4.233,3.233.028,3.935-.084Z" transform="translate(-5172.556 -809.612)"/></g></g><g transform="translate(4932.841 565.373)"><path class="a" d="M4941.289,722.681c0-4.04,0-4.784-.053-5.635-.054-.9-.266-1.329-1.143-1.515a5.472,5.472,0,0,0-1.037-.08c-.292,0-.452-.053-.452-.239s.187-.239.585-.239c1.408,0,3.083.08,3.828.08,1.089,0,2.631-.08,3.853-.08,3.322,0,4.519,1.116,4.944,1.515a4.616,4.616,0,0,1,1.329,3.163,6.254,6.254,0,0,1-6.538,6.432,3.927,3.927,0,0,1-.559-.027c-.134-.026-.319-.053-.319-.239,0-.212.186-.292.745-.292,1.489,0,3.562-1.674,3.562-4.386a5.118,5.118,0,0,0-1.568-3.987,3.949,3.949,0,0,0-2.658-1.037,3.762,3.762,0,0,0-1.037.106c-.134.053-.213.213-.213.5v10.631c0,2.445,0,4.545.134,5.688.079.744.239,1.329,1.036,1.435a11.24,11.24,0,0,0,1.355.106c.293,0,.426.08.426.213,0,.186-.213.266-.506.266-1.754,0-3.429-.08-4.119-.08-.611,0-2.286.08-3.349.08-.346,0-.531-.08-.531-.266,0-.133.106-.213.425-.213a4.341,4.341,0,0,0,.957-.106c.532-.106.665-.691.771-1.462.133-1.116.133-3.216.133-5.661Z" transform="translate(-4938.604 -714.601)"/><path class="a" d="M4996.834,724.132c0-4.545,3-10.419,10.977-10.419,6.618,0,10.737,3.854,10.737,9.941s-4.252,10.9-11,10.9C4999.917,734.551,4996.834,728.836,4996.834,724.132Zm17.994.505c0-5.954-3.429-9.648-7.788-9.648-3.056,0-6.538,1.7-6.538,8.319,0,5.528,3.057,9.914,8.16,9.914C5010.522,733.222,5014.828,732.318,5014.828,724.637Z" transform="translate(-4979.638 -713.713)"/><path class="a" d="M5086.471,727.359c0,3.4,0,5.236.559,5.715.451.4,1.142.584,3.215.584,1.409,0,2.445-.026,3.11-.744a3.334,3.334,0,0,0,.691-1.595c.027-.239.079-.4.292-.4.186,0,.213.133.213.452a20.873,20.873,0,0,1-.4,3.056c-.159.585-.292.718-1.674.718-1.915,0-3.3-.053-4.492-.079-1.2-.053-2.154-.08-3.243-.08-.292,0-.877,0-1.515.026-.612,0-1.3.053-1.834.053-.346,0-.531-.08-.531-.266,0-.133.105-.213.425-.213a4.344,4.344,0,0,0,.957-.106c.531-.106.665-.691.771-1.462.132-1.116.132-3.216.132-5.661v-4.678c0-4.04,0-4.784-.053-5.635-.052-.9-.266-1.329-1.143-1.515a3.947,3.947,0,0,0-.877-.08c-.292,0-.452-.053-.452-.239s.186-.239.584-.239c1.249,0,2.924.08,3.641.08.638,0,2.578-.08,3.615-.08.372,0,.558.053.558.239s-.16.239-.479.239a7.068,7.068,0,0,0-1.036.08c-.717.133-.93.585-.983,1.515-.053.851-.053,1.595-.053,5.635Z" transform="translate(-5038.682 -714.601)"/><path class="a" d="M5140.921,727.359c0,3.4,0,5.236.558,5.715.452.4,1.144.584,3.217.584,1.408,0,2.445-.026,3.11-.744a3.332,3.332,0,0,0,.689-1.595c.027-.239.08-.4.294-.4.186,0,.212.133.212.452a21.065,21.065,0,0,1-.4,3.056c-.16.585-.293.718-1.676.718-1.912,0-3.294-.053-4.491-.079-1.2-.053-2.152-.08-3.243-.08-.292,0-.876,0-1.515.026-.611,0-1.3.053-1.833.053-.346,0-.532-.08-.532-.266,0-.133.107-.213.426-.213a4.341,4.341,0,0,0,.957-.106c.531-.106.664-.691.771-1.462.132-1.116.132-3.216.132-5.661v-4.678c0-4.04,0-4.784-.053-5.635-.054-.9-.267-1.329-1.145-1.515a3.923,3.923,0,0,0-.875-.08c-.294,0-.452-.053-.452-.239s.186-.239.583-.239c1.25,0,2.925.08,3.642.08.639,0,2.579-.08,3.615-.08.372,0,.559.053.559.239s-.161.239-.478.239a7.073,7.073,0,0,0-1.038.08c-.717.133-.929.585-.982,1.515-.054.851-.054,1.595-.054,5.635Z" transform="translate(-5077.05 -714.601)"/><path class="a" d="M5186,722.681c0-4.04,0-4.784-.052-5.635-.054-.9-.266-1.329-1.143-1.515a5.471,5.471,0,0,0-1.036-.08c-.294,0-.453-.053-.453-.239s.186-.239.585-.239c1.409,0,3.083.08,3.879.08.638,0,2.313-.08,3.27-.08.4,0,.584.053.584.239s-.159.239-.425.239a4,4,0,0,0-.771.08c-.718.133-.93.585-.983,1.515-.054.851-.054,1.595-.054,5.635V726.4c0,3.854.771,5.475,2.074,6.539a4.914,4.914,0,0,0,3.321,1.089,5.2,5.2,0,0,0,3.667-1.435c1.463-1.462,1.542-3.854,1.542-6.592v-3.322c0-4.04,0-4.784-.053-5.635-.052-.9-.267-1.329-1.144-1.515a5.134,5.134,0,0,0-.957-.08c-.291,0-.451-.053-.451-.239s.186-.239.557-.239c1.355,0,3.03.08,3.057.08.319,0,1.994-.08,3.03-.08.371,0,.56.053.56.239s-.16.239-.479.239a4.008,4.008,0,0,0-.771.08c-.717.133-.93.585-.983,1.515-.053.851-.053,1.595-.053,5.635v2.844c0,2.95-.293,6.086-2.525,8a7.932,7.932,0,0,1-5.528,1.914,8.549,8.549,0,0,1-5.9-1.834c-1.355-1.223-2.366-3.19-2.366-7.044Z" transform="translate(-5111.044 -714.601)"/><path class="a" d="M5267.812,723.957c.851,1.3,5.156,8.5,5.821,9.355a2.811,2.811,0,0,0,1.542,1.116,3.464,3.464,0,0,0,1.01.16c.186,0,.346.053.346.213,0,.186-.213.266-.505.266h-.8c-.639,0-2.738,0-4.784-.053-.691-.026-.9-.08-.9-.266,0-.159.132-.239.373-.292.132-.027.238-.266.053-.611-1.461-2.6-2.978-5.236-4.2-7.229l-3.933,6.352a1.959,1.959,0,0,0-.371,1.117.6.6,0,0,0,.5.452,4.009,4.009,0,0,0,.611.053c.16,0,.318.08.318.239,0,.186-.186.239-.531.239h-.478c-.16,0-1.834-.08-2.5-.08-.505,0-1.806.08-2.231.08h-.453c-.267,0-.4-.08-.4-.239s.159-.239.371-.239a4.17,4.17,0,0,0,.984-.133c.771-.213,1.275-.718,2.179-1.994l5.077-7.255-4.572-7.575a3.958,3.958,0,0,0-2.206-1.994,4.031,4.031,0,0,0-1.116-.186.238.238,0,0,1-.266-.266c0-.16.186-.213.532-.213.638,0,2.791.08,4.04.08.371,0,1.86-.08,2.843-.08.373,0,.532.053.532.239s-.16.239-.4.239a2.47,2.47,0,0,0-.718.106.435.435,0,0,0-.318.425,2.049,2.049,0,0,0,.265.771c1.143,2.126,2.34,4.066,3.376,5.874.771-1.169,3.216-4.864,3.615-5.608a2.271,2.271,0,0,0,.292-1.01.585.585,0,0,0-.452-.478,3.271,3.271,0,0,0-.849-.08c-.161,0-.32-.053-.32-.239,0-.16.187-.239.559-.239,1.037,0,2.152.08,2.657.08.532,0,1.621-.08,2.6-.08.293,0,.479.08.479.239s-.16.239-.426.239a3.566,3.566,0,0,0-.957.159c-.611.159-1.143.9-1.94,2.073Z" transform="translate(-5162.478 -714.601)"/></g><g transform="translate(4965.605 508.13)"><path class="b" d="M5089.063,569.99l-41.627,5.5,45.054,5.212Z" transform="translate(-5045.545 -553.568)"/><path class="c" d="M5042.193,590.43l45.2,5.212-38.96,6.959-7.563-5.538a1.153,1.153,0,0,1-.415-1.287Z" transform="translate(-5040.373 -568.581)"/><path class="d" d="M5085.5,627.73l-15.108-10.707,38.889-6.959.1.285a.568.568,0,0,1-.006.385,1.7,1.7,0,0,1-.518.686l-22.631,16.306A.62.62,0,0,1,5085.5,627.73Z" transform="translate(-5062.405 -583.003)"/><g class="f" transform="matrix(1, 0, 0, 1, -32.76, -7)"><path class="e" d="M5050.1,508.13l27.523.046a1.251,1.251,0,0,1,1.188.866l8.458,26.185a1.24,1.24,0,0,1-.453,1.386l-22.3,16.141a1.239,1.239,0,0,1-1.458,0l-22.241-16.216a1.239,1.239,0,0,1-.448-1.387l8.551-26.17A1.234,1.234,0,0,1,5050.1,508.13Z" transform="translate(-5007.55 -501.13)"/></g></g></g></svg>