<svg xmlns="http://www.w3.org/2000/svg" width="27.006" height="27.006" viewBox="0 0 27.006 27.006"><defs><style>.a{fill:#f8f8f8;stroke:#f8f8f8;stroke-width:0.3px;}</style></defs><path class="a" d="M24.818,19.2a17.164,17.164,0,0,0-4.187-2.516,22.77,22.77,0,0,1-3.216-1.8,11.291,11.291,0,0,0,2.8-6.788A10.669,10.669,0,0,0,19.4,3.2C18.66,1.739,17.013,0,13.353,0S8.046,1.739,7.31,3.2a10.657,10.657,0,0,0-.819,4.9,11.283,11.283,0,0,0,2.8,6.788,22.658,22.658,0,0,1-3.217,1.8A17.176,17.176,0,0,0,1.887,19.2C.141,20.945.009,23.876,0,24.447a2.225,2.225,0,0,0,2.225,2.259H24.48a2.225,2.225,0,0,0,2.226-2.26C26.7,23.877,26.564,20.945,24.818,19.2Zm.059,5.673a.556.556,0,0,1-.4.166H2.225a.556.556,0,0,1-.4-.166.564.564,0,0,1-.161-.4c0-.28.082-2.776,1.4-4.094a16.958,16.958,0,0,1,3.753-2.2A18.305,18.305,0,0,0,10.437,16.1l1.126-1.065-.978-1.2A9.659,9.659,0,0,1,8.16,8.1,9.227,9.227,0,0,1,8.8,3.951c.765-1.514,2.3-2.282,4.554-2.282s3.789.768,4.553,2.281A9.232,9.232,0,0,1,18.546,8.1a9.653,9.653,0,0,1-2.426,5.734l-.978,1.2L16.268,16.1a18.344,18.344,0,0,0,3.616,2.076,16.883,16.883,0,0,1,3.753,2.2,6.5,6.5,0,0,1,1.4,4.094A.556.556,0,0,1,24.877,24.871Z" transform="translate(0.15 0.15)"/></svg>