<svg xmlns="http://www.w3.org/2000/svg" xmlns:xlink="http://www.w3.org/1999/xlink" width="378.617" height="823.809" viewBox="0 0 378.617 823.809"><defs><style>.a{fill:none;}.b{fill:#1d1d1d;}.c,.g{fill:#46153c;}.d{clip-path:url(#a);}.e{fill:#961341;}.e,.f,.g{stroke:rgba(0,0,0,0);}.f{fill:#69133b;}</style><clipPath id="a"><path class="a" d="M0,0H378.617V661.374c0,8.015-6.751,14.512-15.08,14.512H15.08c-8.328,0-15.08-6.5-15.08-14.512Z" transform="translate(-714.383 4768.902) rotate(180)"/></clipPath></defs><g transform="translate(-165.383 -1320.135)"><path class="b" d="M0,0H378.617V471.544c0,5.714-6.751,10.346-15.08,10.346H15.08C6.751,481.891,0,477.259,0,471.544Z" transform="translate(544 1802.025) rotate(180)"/><path class="c" d="M0,0H378.617V201.344c0,2.44-6.751,4.418-15.08,4.418H15.08c-8.328,0-15.08-1.978-15.08-4.418Z" transform="translate(544 1996.025) rotate(180)"/><g class="d" transform="translate(1258.383 -2624.959)"><path class="e" d="M5505.355,569.99l-457.918,58.646,495.616,55.6Z" transform="translate(-6191.51 3720.279)"/><path class="f" d="M5060.171,590.43l497.2,55.6-444.306,76.742-67.483-61.58a12.089,12.089,0,0,1-4.568-13.724Z" transform="translate(-6205.023 3757.722)"/><path class="g" d="M5236.584,798.507,5058.073,685.879l440.114-75.815,1.045,3.038a5.866,5.866,0,0,1-.063,4.112,18.155,18.155,0,0,1-5.7,7.322L5244.51,798.476A6.989,6.989,0,0,1,5236.584,798.507Z" transform="translate(-6147.419 3793.69)"/></g></g></svg>